<?xml version="1.0" standalone="no"?>
<!DOCTYPE svg PUBLIC "-//W3C//DTD SVG 20010904//EN"
 "http://www.w3.org/TR/2001/REC-SVG-20010904/DTD/svg10.dtd">
<svg version="1.0" xmlns="http://www.w3.org/2000/svg"
 width="260.000000pt" height="260.000000pt" viewBox="0 0 260.000000 260.000000"
 preserveAspectRatio="xMidYMid meet">
<metadata>
Created by potrace 1.14, written by Peter Selinger 2001-2017
</metadata>
<g transform="translate(0.000000,260.000000) scale(0.100000,-0.100000)"
fill="#000000" stroke="none">
<path d="M0 1300 l0 -1300 1270 0 1270 0 0 295 0 295 -162 0 -163 1 -240 335
-240 336 -3 -336 -2 -336 -140 0 -140 0 0 670 0 670 140 0 140 0 2 -320 3
-321 234 316 c129 174 239 319 245 321 7 3 76 3 154 2 l143 -3 -241 -318
c-153 -201 -238 -322 -233 -330 10 -17 484 -660 494 -671 5 -6 9 426 9 992 l0
1002 -1270 0 -1270 0 0 -1300z m841 636 c133 -29 250 -110 291 -203 23 -52 27
-149 9 -208 -32 -99 -118 -172 -248 -211 -43 -13 -69 -23 -58 -23 86 -3 230
-67 286 -128 57 -62 73 -104 72 -193 0 -185 -116 -316 -333 -376 -51 -14 -103
-18 -245 -18 -185 -1 -277 10 -393 46 l-62 19 0 119 0 120 50 -20 c105 -41
245 -62 395 -58 129 3 144 5 197 31 74 36 101 74 106 147 4 50 1 60 -23 88
-56 67 -165 98 -384 108 l-141 7 0 109 0 108 123 0 c199 1 331 34 370 93 46
71 26 149 -50 194 -46 27 -54 28 -173 28 -135 0 -178 -10 -294 -66 -32 -16
-62 -29 -66 -29 -4 0 -33 41 -65 91 -56 88 -58 92 -39 106 60 45 197 98 302
117 101 19 290 19 373 2z"/>
</g>
</svg>
